<svg xmlns="http://www.w3.org/2000/svg" width="20" height="20" viewBox="0 0 20 20"><defs><style>.a{fill:#bb271f;}</style></defs><path class="a" d="M10,2A3.008,3.008,0,0,0,7.188,4H2V6H7.188A2.993,2.993,0,1,0,10,2Zm0,2A1,1,0,1,1,9,5,.985.985,0,0,1,10,4Zm5,0V6h7V4Zm0,5a3.008,3.008,0,0,0-2.812,2H2v2H12.188A2.993,2.993,0,1,0,15,9Zm0,2a1,1,0,1,1-1,1A.985.985,0,0,1,15,11Zm5,0v2h2V11ZM7,16a3.008,3.008,0,0,0-2.812,2H2v2H4.188A2.993,2.993,0,1,0,7,16Zm0,2a1,1,0,1,1-1,1A.985.985,0,0,1,7,18Zm5,0v2H22V18Z" transform="translate(-2 -2)"/></svg>