<svg xmlns="http://www.w3.org/2000/svg" width="21.999" height="19" viewBox="0 0 21.999 19"><defs><style>.a{fill:#bb271f;}</style></defs><path class="a" d="M7.658,2A2.007,2.007,0,0,0,5.82,3.211L3.34,9H2a1,1,0,0,0-.967,1.266L3.6,19.531A2.007,2.007,0,0,0,5.523,21H18.477A2,2,0,0,0,20.4,19.533l2.561-9.266A1,1,0,0,0,22,9H20.66L18.178,3.213h0A2.005,2.005,0,0,0,16.34,2Zm0,2H16.34l2.143,5H5.518ZM3.314,11H20.686l-2.211,8H5.523ZM8,13a1,1,0,0,0-1,1v2a1,1,0,0,0,2,0V14A1,1,0,0,0,8,13Zm4,0a1,1,0,0,0-1,1v2a1,1,0,0,0,2,0V14A1,1,0,0,0,12,13Zm4,0a1,1,0,0,0-1,1v2a1,1,0,0,0,2,0V14A1,1,0,0,0,16,13Z" transform="translate(-1 -2)"/></svg>