<svg xmlns="http://www.w3.org/2000/svg" xmlns:xlink="http://www.w3.org/1999/xlink" width="195.044" height="152.614" viewBox="0 0 195.044 152.614"><defs><style>.a,.k{fill:#bb271f;}.a,.d,.g,.n,.o{opacity:0.1;}.b{fill:url(#a);}.c{fill:#efb7b9;}.e{fill:#dce6f2;}.f{fill:#965d7b;}.h{fill:#444053;}.i{fill:#a36468;}.j{fill:#8e1912;}.l{fill:#a22720;}.m{fill:#d6423a;}.n{fill:#fff;}.o{fill:#6c63ff;}.p{fill:#a8a8a8;}.q{opacity:0.2;}</style><linearGradient id="a" y1="0.5" x2="1" y2="0.5" gradientUnits="objectBoundingBox"><stop offset="0" stop-color="gray" stop-opacity="0.251"/><stop offset="0.54" stop-color="gray" stop-opacity="0.122"/><stop offset="1" stop-color="gray" stop-opacity="0.102"/></linearGradient></defs><g transform="translate(0.004 -0.003)"><ellipse class="a" cx="34.023" cy="6.445" rx="34.023" ry="6.445" transform="translate(34.392 136.771)"/><path class="a" d="M208.548,76.555c-12.5-.433-24.413-4.471-35.784-8.887s-22.635-9.308-34.84-11.648c-7.85-1.505-16.828-1.719-23.151,2.485-6.088,4.057-8.055,11.041-9.111,17.527-.8,4.88-1.264,10.017.916,14.587,1.515,3.172,4.2,5.839,6.059,8.878,6.466,10.572,1.9,23.609-5.11,33.932-3.284,4.842-7.1,9.467-9.637,14.616s-3.709,11.068-1.49,16.335c2.2,5.216,7.44,9.127,13.118,11.88,11.532,5.593,25.116,7.193,38.371,8.1,29.334,2.005,58.822,1.138,88.232.267,10.885-.321,21.816-.647,32.523-2.33,5.947-.935,12.085-2.419,16.4-6a13.734,13.734,0,0,0,3.165-17.942c-6.159-9.563-23.184-11.938-27.494-22.2-2.369-5.649.064-11.94,3.509-17.177,7.388-11.238,19.77-21.1,20.421-33.941.448-8.822-5.5-17.657-14.708-21.832-9.646-4.376-23.026-3.825-30.139,3.418C232.468,74.071,219.59,76.94,208.548,76.555Z" transform="translate(-95.23 -55.03)"/><path class="b" d="M378.418,202.463l-5.918-3.99h0l2.985-4.444-15.63-1.246-5.616,4.343-7.031-3.941-5.864.705-.07-1.546a43.626,43.626,0,0,0-.485-4.811c.025-.483.043-1.037.041-1.64,0-2.541-.344-5.908-1.855-8.153l.348-3.126-2.821-3.333a21.32,21.32,0,0,1,1.546-2.6c.1-.139.193-.274.3-.406a7.015,7.015,0,0,0,6.549-6.955,4.452,4.452,0,0,0-.019-.508,1.842,1.842,0,0,0-.021-.2c.357.193.719.386,1.08.58.068.1.145.193.23.307h0l.017.021.108.133.035.041c.039.046.079.091.12.137l.027.031c.1.114.211.23.327.344a.348.348,0,0,1,.039.037l.145.135.041.037c.124.11.255.216.386.317l.042.031.166.114.054.035c.064.039.129.079.193.116l.023.014c.075.041.153.079.23.116l.039.015.193.081.06.021c.068.023.133.044.2.064l.043.012c.085.021.17.039.257.052h.01a2.1,2.1,0,0,0,.247.025h.056a2.125,2.125,0,0,0,.222,0h.048a2.289,2.289,0,0,0,.276-.033,3.048,3.048,0,0,0,1.217-.437,1.062,1.062,0,0,0,.247-.23.911.911,0,0,0-.039-1.061h0c-.151-.359-1.128-.612-1.128-.612s-3.091-1.291-3.091-2.318-.773-6.36-8.75-7.579c0,0-5.189-.292-6.648,2.486l-.031.325c-.429.269-.784.808-1.208.966a1.972,1.972,0,0,0-.524.193v-.037h0a.5.5,0,0,0-.118.153,1.545,1.545,0,0,0-.16.58,2.183,2.183,0,0,1-.253.7,1.557,1.557,0,0,1-.116.178h0l-.033.052a1.41,1.41,0,0,0,.657-.106,3.27,3.27,0,0,1-.193.773.641.641,0,0,0,.6-.355v-.015l.025-.035a1.631,1.631,0,0,0,.12-.28l-.021.023c.039-.126.073-.253.116-.377a.591.591,0,0,1,.095-.193.468.468,0,0,1,.4-.133l-.079,1.675h.035a2.288,2.288,0,0,1-.17.352c-.274.444-.773.748-.956,1.235a1.817,1.817,0,0,0-.089.73c0,.145.017.292.029.437v-.012a1.629,1.629,0,0,1-.174,1.065c-.143.213-.373.373-.452.614a.6.6,0,0,0-.029.209,2.343,2.343,0,0,0,.131.62.027.027,0,0,0,0-.012.943.943,0,0,1,.033.456c-.087.386-.556.709-.533,1.078a.415.415,0,0,0,.021.143.782.782,0,0,0,.437.386,1.7,1.7,0,0,0,.981.216,1.291,1.291,0,0,0,.367-.126c-.135.311-.274.618-.415.91-.021.046-.044.093-.068.139,0,0-1.194-.8-1.872.829a3.608,3.608,0,0,0-.419,1.09,2.6,2.6,0,0,1-.143.448,2.884,2.884,0,0,1-1.291,1.159c-1.383.634-6.971,7.6-7.069,9.407a10.528,10.528,0,0,1-.355,2.083,12.393,12.393,0,0,0-.332,4.925,9.423,9.423,0,0,0,.342,1.571,35.191,35.191,0,0,1,.989,5.166l.641,5.839a16.613,16.613,0,0,0,.1,2.413c-.655.748-3.284,3.864-2.28,4.712a3.707,3.707,0,0,0,2.884.421,24.549,24.549,0,0,0-1.779,6.223c-.193,2.8.33,6.5,1.159,7.921s3.592,5.07,3.592,5.07-.129,5,.858,6.822a19.888,19.888,0,0,1,1.385,5.589s.922,3.184.46,4.355.856,2.145-.527,2.923-3.153,18.327-3.153,18.327-.713,11.5,0,12.087a.724.724,0,0,0,.122.072v3.864s-.495.811,1.517.976c1.378.11,5.282.359,7.6.5l1.795.112s4.25.846,6.128,0,5.207-.827,4.712-3.062a6.36,6.36,0,0,0-.263-.895c-.543-1.387-1.464-1.546-3.163-1.932-.1-.021-.193-.041-.28-.056-1.789-.311-2.376.522-3.379-.562-.871-.937-3.646-1.986-4.59-2.318.023-.07.052-.137.075-.209a1.414,1.414,0,0,1-.717-.35l2.56.162,1.524.095s3.613.721,5.216,0,4.424-.7,4-2.6a5.452,5.452,0,0,0-.222-.761c-.462-1.178-1.246-1.308-2.689-1.634-.083-.017-.16-.035-.238-.048-1.521-.265-2.019.442-2.871-.477a13.21,13.21,0,0,0-3.864-1.963c0-.429-.58-1.039-.945-1.652-.429-.715.363-3.217.363-3.217l.452-10.381a2.005,2.005,0,0,1,.541-.155s2.044-1.951,1.582-4.03a13.361,13.361,0,0,1-.147-1.9,9.757,9.757,0,0,0,1.861-2.114c.429-.925,0-5.41,0-5.41V218.458l3.42.346,3.1.319.945.1,3.1.313,7.131.721L364,219.036l2.78-.526,5.717-1.082V203.441Zm-47.065-46.351-.4-.042C331.086,156.076,331.225,156.1,331.353,156.113Z" transform="translate(-275.036 -132.572)"/><path class="c" d="M495.985,434.55c-1.932,2.765-8.878,1.3-8.878,1.3l-5.383-5.037-.724-.682,1.215-2.581s.386.106,1.049.3C486.744,428.856,497.615,432.225,495.985,434.55Z" transform="translate(-406.473 -355.576)"/><path class="d" d="M483.26,427.846a11.334,11.334,0,0,1-1.536,2.968l-.724-.682,1.215-2.581S482.605,427.656,483.26,427.846Z" transform="translate(-406.473 -355.576)"/><path class="e" d="M377.412,278.081s-4.961,2.2-4.718,7.6a89.094,89.094,0,0,0,1.136,10.386s-1.014,8.132,3.209,10.228,8.132,3.82,8.132,3.82,6.607.711,7.429,1,3.387-4.2,2.913-4.9-6.538-2.166-7.311-3.333a6.451,6.451,0,0,0-2.56-1.888s-1.845-1.117-1.971-2.125a4.588,4.588,0,0,1,.485-2.2c.124-.442.437-4.714.437-4.714S386.676,276.761,377.412,278.081Z" transform="translate(-319.084 -234.919)"/><path class="d" d="M388.24,370.39s-6.806,1.14-6.148,3.522A14.43,14.43,0,0,1,388.24,370.39Z" transform="translate(-326.638 -309.46)"/><path class="d" d="M401.4,375.38s-3.742,3.055-3.01,3.211S401.4,375.38,401.4,375.38Z" transform="translate(-339.749 -313.486)"/><path class="d" d="M421.23,380.89s-1,2.054-.386,1.915S421.23,380.89,421.23,380.89Z" transform="translate(-357.777 -317.931)"/><path class="d" d="M397.164,308.31l-.413-.118a1.181,1.181,0,0,0,.054-.844c-.473-.7-6.534-2.164-7.3-3.333a6.417,6.417,0,0,0-2.56-1.888S385.1,301.011,384.97,300a4.588,4.588,0,0,1,.485-2.2c.124-.442.437-4.716.437-4.716s2.077-15.2-7.187-13.883c0,0-4.961,2.2-4.72,7.606a88.842,88.842,0,0,0,1.138,10.386s-1.014,8.132,3.209,10.228,8.132,3.82,8.132,3.82,6.606.709,7.429,1c.311.112.873-.466,1.424-1.26l.313.292,5.383,5.035s6.946,1.466,8.878-1.3C411.521,312.688,400.652,309.319,397.164,308.31Z" transform="translate(-320.125 -235.823)"/><path class="f" d="M377.513,168.8a1.642,1.642,0,0,0-.535.207c-.193.16-.193.435-.242.674a2.218,2.218,0,0,1-.386.923,1.389,1.389,0,0,0,.643-.106,3.311,3.311,0,0,1-.193.773.626.626,0,0,0,.58-.354,3.722,3.722,0,0,0,.242-.678.558.558,0,0,1,.093-.193c.178-.211.508-.116.782-.089a1.285,1.285,0,0,0,1.175-.564c.292-.442.309-1.575-.386-1.694C378.558,167.579,378.106,168.58,377.513,168.8Z" transform="translate(-322.041 -145.92)"/><g class="g" transform="translate(54.338 23.036)"><path d="M378.225,174.538c.017-.095.029-.193.05-.288h0a1.133,1.133,0,0,0-.242.674,2.125,2.125,0,0,1-.114.408A2.214,2.214,0,0,0,378.225,174.538Z" transform="translate(-377.646 -174.25)"/><path d="M377.141,180.773a3.214,3.214,0,0,0,.193-.773,1.383,1.383,0,0,1-.612.106,2.236,2.236,0,0,1-.222.386,1.376,1.376,0,0,0,.641-.1,3.213,3.213,0,0,1-.193.773.628.628,0,0,0,.58-.354,1.443,1.443,0,0,0,.116-.276A.58.58,0,0,1,377.141,180.773Z" transform="translate(-376.5 -178.889)"/><path d="M384.743,175.223c-.274-.027-.607-.122-.784.089a.6.6,0,0,0-.093.193c-.017.05-.033.1-.046.155.184-.145.481-.068.73-.043a1.291,1.291,0,0,0,1.175-.564,1.07,1.07,0,0,0,.129-.3A1.287,1.287,0,0,1,384.743,175.223Z" transform="translate(-382.406 -174.653)"/></g><path class="e" d="M313.069,201l2.946,3.543-.384,3.576-3.561-5.574Z" transform="translate(-251.781 -162.164)"/><path class="d" d="M316.013,204.543l-.361,3.364-.023.213-3.213-5.031-.346-.543.1-.156.9-1.389.2.24Z" transform="translate(-251.781 -162.164)"/><path class="c" d="M384.664,209.457a5.907,5.907,0,0,0-2.778,2.459,20.994,20.994,0,0,0-1.5,2.577c-.272.545-.512,1.068-.711,1.524l-.139.325c-.336.794-.524,1.325-.524,1.325s-7.631-5.738-6.424-6.124c.406-.129.939-1,1.466-2.094l.066-.139c.334-.7.663-1.488.954-2.226.6-1.517,1.039-2.834,1.039-2.834S387.707,208.587,384.664,209.457Z" transform="translate(-318.902 -175.418)"/><path class="h" d="M459.26,202.58s1.762,3.188,4.129,2.753,1.393-1.712,1.393-1.712Z" transform="translate(-388.933 -174.071)"/><path class="i" d="M382.323,742.313c-1.561.713-5.091,0-5.091,0l-1.488-.093c-1.932-.124-5.166-.332-6.31-.425-1.669-.137-1.26-.821-1.26-.821v-4.133l8.1-2.052s3.2,1.1,4.078,2.052c.833.912,1.32.211,2.805.473.073.014.151.029.232.048,1.41.323,2.175.45,2.628,1.619a5.427,5.427,0,0,1,.218.753C386.652,741.618,383.882,741.6,382.323,742.313Z" transform="translate(-315.409 -603.458)"/><path class="d" d="M386.017,749.527a6.05,6.05,0,0,1-.912.468c-1.063.485-2.073,1.076-3.147,1.534a7.361,7.361,0,0,1-3.395.7,5.062,5.062,0,0,0-1.812-.019,4.183,4.183,0,0,0-1.007.558c-1.932-.124-5.166-.332-6.31-.425-1.669-.137-1.26-.821-1.26-.821v-.483c.06,0,.128-.017.2-.023a3.645,3.645,0,0,1,1.179.176c.839.228,1.673.452,2.512.676a1.984,1.984,0,0,1,.966-1.233,3.08,3.08,0,0,1,1.557-.357c1.3.017,2.531.634,3.829.7a2.109,2.109,0,0,0,1.061-.178c.178-.089.334-.218.508-.317a3.71,3.71,0,0,1,.875-.3,19.272,19.272,0,0,0,2.5-.807c.232-.091.5-.255.471-.5-.041-.328-.556-.367-.692-.669a.386.386,0,0,1,.015-.342c.073.014.151.029.232.048C384.8,748.231,385.565,748.358,386.017,749.527Z" transform="translate(-315.409 -614.003)"/><path class="i" d="M363.325,783.554c-1.835.839-5.989,0-5.989,0l-1.748-.1c-2.264-.145-6.078-.386-7.425-.5-1.965-.162-1.482-.966-1.482-.966v-4.871l9.531-2.415s3.767,1.289,4.8,2.415c.98,1.072,1.546.247,3.3.556.087.016.178.035.272.056,1.66.386,2.56.531,3.091,1.907a6.2,6.2,0,0,1,.257.887C368.412,782.735,365.16,782.718,363.325,783.554Z" transform="translate(-298.062 -635.657)"/><path class="d" d="M367.672,792.083a7.187,7.187,0,0,1-1.072.551c-1.25.57-2.44,1.265-3.7,1.8a8.682,8.682,0,0,1-4,.821,5.829,5.829,0,0,0-2.125-.023,4.928,4.928,0,0,0-1.188.665c-2.264-.145-6.078-.386-7.425-.5-1.965-.162-1.482-.966-1.482-.966v-.568a2.411,2.411,0,0,1,.241-.027,4.239,4.239,0,0,1,1.387.207l2.954.8a2.338,2.338,0,0,1,1.146-1.451,3.605,3.605,0,0,1,1.833-.421c1.53.021,2.977.746,4.505.819a2.5,2.5,0,0,0,1.244-.207c.211-.106.386-.259.6-.373a4.2,4.2,0,0,1,1.03-.348,23.119,23.119,0,0,0,2.929-.951c.272-.108.591-.3.554-.591-.048-.386-.655-.433-.815-.788a.466.466,0,0,1,.019-.4c.087.016.178.035.272.056C366.24,790.557,367.141,790.708,367.672,792.083Z" transform="translate(-298.062 -648.106)"/><path class="h" d="M385.111,647.54l-.516,12.139s-.773,2.479-.354,3.188,1.126,1.416.869,1.835-3.348,4.952-4.347,3.213-1.984-9.274-1.984-9.274l.922-9.306Z" transform="translate(-324.001 -533.064)"/><path class="h" d="M411.028,491l1.434,1.917v16.669s.419,4.444,0,5.361a14.39,14.39,0,0,1-2.544,2.753l-1.787-9.177.386-9.708Z" transform="translate(-347.681 -406.768)"/><path class="d" d="M385.111,647.54l-.516,12.139s-.773,2.479-.354,3.188,1.126,1.416.869,1.835-3.348,4.952-4.347,3.213-1.984-9.274-1.984-9.274l.922-9.306Z" transform="translate(-324.001 -533.064)"/><path class="d" d="M411.028,491l1.434,1.917v16.669s.419,4.444,0,5.361a14.39,14.39,0,0,1-2.544,2.753l-1.787-9.177.386-9.708Z" transform="translate(-347.681 -406.768)"/><path class="h" d="M347.006,434.837v9.017l-1.609,7.019s-.516,16.938-.066,19-1.546,3.993-1.546,3.993-1.159.129-1.159,1.03-1.932,3.478-1.932,3.478l.064,5.023s.838,9.4-.45,11.206.45,2.061.45,2.061c-1.609,5.28-9.337,4.057-10.035,3.478s0-11.978,0-11.978S332.45,470.772,333.8,470s.066-1.739.516-2.9-.45-4.314-.45-4.314a19.882,19.882,0,0,0-1.352-5.539c-.966-1.8-.839-6.762-.839-6.762s-2.7-3.607-3.509-5.023-1.321-5.087-1.128-7.857a24.687,24.687,0,0,1,1.739-6.167c.3-.752.516-1.238.516-1.238l.184.048,10.553,2.763Z" transform="translate(-282.226 -357.714)"/><path class="d" d="M395.58,209.4a5.907,5.907,0,0,0-2.778,2.459h-.216A6.9,6.9,0,0,1,386.6,208.4a6.8,6.8,0,0,1-.607-1.381c.6-1.517,1.039-2.834,1.039-2.834S398.623,208.531,395.58,209.4Z" transform="translate(-329.818 -175.362)"/><path class="c" d="M398.194,177.335a6.907,6.907,0,1,1-12.921-3.385A6.747,6.747,0,0,1,386,172.9a6.99,6.99,0,0,1,1.588-1.395,6.907,6.907,0,0,1,10.593,5.328C398.188,177,398.194,177.167,398.194,177.335Z" transform="translate(-328.519 -148.126)"/><path class="d" d="M382.773,242.291l-.023.213-3.213-5.023c-.336.794-.524,1.325-.524,1.325s-7.631-5.746-6.424-6.132c.406-.129.939-1,1.466-2.094l.066-.139c.56,1.669,3.816,5.006,5.17,6.343.156.155.286.282.386.375l.207.193.108.108C380.485,237.967,382.564,240.208,382.773,242.291Z" transform="translate(-318.902 -196.548)"/><path class="e" d="M343.242,259.1l-.352,11.316-.062,2.015s-4.165-.386-8.053-.811a52.442,52.442,0,0,1-6.534-.927,12.3,12.3,0,0,0-2.8-.616c-.757-.1-1.352-.156-1.352-.156s-.222.066-.564.128a3.584,3.584,0,0,1-2.819-.417c-.976-.848,1.588-3.93,2.228-4.67l.141-.16-.242-2.231-.628-5.786a35.3,35.3,0,0,0-.966-5.12,9.446,9.446,0,0,1-.334-1.555,12.457,12.457,0,0,1,.325-4.88,10.643,10.643,0,0,0,.348-2.065c.1-1.787,5.555-8.694,6.907-9.322a2.867,2.867,0,0,0,1.383-1.379,2.636,2.636,0,0,0,.211-.6c.58-2.512,2.046-1.515,2.046-1.515.354,1.965,5.827,7.166,5.827,7.166l.108.108c.543.556,2.962,3.168,2.79,5.4a6.544,6.544,0,0,0,.365,2.442,41.3,41.3,0,0,1,1.9,10.819Z" transform="translate(-276.97 -196.314)"/><path class="d" d="M387.535,310.45s-1.352,3.284-2.367,3.816S388.018,315.386,387.535,310.45Z" transform="translate(-329.018 -261.1)"/><path class="d" d="M390.471,342.2s-3.091.386-3.091.966S390.471,342.2,390.471,342.2Z" transform="translate(-330.94 -286.716)"/><path class="d" d="M395.5,361.7s-4.492,9.563-5.748,9.853S395.5,361.7,395.5,361.7Z" transform="translate(-332.731 -302.449)"/><path class="d" d="M376.2,239.569l-3.715,1.615L368,234.41a2.636,2.636,0,0,0,.211-.6c.58-2.512,2.046-1.515,2.046-1.515.354,1.965,5.827,7.166,5.827,7.166Z" transform="translate(-315.304 -197.887)"/><path class="e" d="M377.2,237.569l-3.715,1.615L369,232.41a2.636,2.636,0,0,0,.211-.6c.58-2.512,2.046-1.515,2.046-1.515.354,1.965,5.827,7.166,5.827,7.166Z" transform="translate(-316.111 -196.273)"/><path class="d" d="M351.212,322.2s-4.165-.386-8.053-.811l6.975,1.826v2.125c-.305.276-.57.419-.742.346-.8-.338-7.363-1.4-7.363-1.4s-3.81-1.932-7.921-4.25a3.176,3.176,0,0,1-.29-.182,4.567,4.567,0,0,1-1.217-1.219,8.652,8.652,0,0,1-1.291-3.9,16.852,16.852,0,0,1-.1-2.392,19.605,19.605,0,0,1,.247-2.7,88.881,88.881,0,0,1-.58-10.433c.048-5.41,5.12-7.342,5.12-7.342,9.322-.821,6.432,14.249,6.432,14.249s-.539,4.25-.686,4.685a4.587,4.587,0,0,0-.6,2.173c.072,1.014,1.853,2.228,1.853,2.228a6.505,6.505,0,0,1,2.456,2.023c.522.891,3.91,2.1,5.825,2.96Z" transform="translate(-285.354 -246.079)"/><path class="d" d="M397.443,169.292a2.187,2.187,0,0,1-.193.923,5.709,5.709,0,0,1-.344.688,3.169,3.169,0,0,1-.846,1.051,4.329,4.329,0,0,1-1.546.537,2.237,2.237,0,0,0-1.4.792,2.77,2.77,0,0,0-.327.947,2.036,2.036,0,0,1-.386.916.759.759,0,0,1-.9.216.914.914,0,0,1-.35-.45,6.456,6.456,0,0,1-.365-1.582,3.366,3.366,0,0,0-.543-1.517,1.358,1.358,0,0,0-1.426-.547,1.374,1.374,0,0,0-.773.75,4.3,4.3,0,0,0-.292,1.066q-.359,1.967-.848,3.91a.359.359,0,0,1-.064.147.278.278,0,0,1-.193.081c-.433.058-.848-.245-1.285-.213a.738.738,0,0,0-.133.021,6.9,6.9,0,0,1,.7-7.883l.035-.01a2.083,2.083,0,0,0,.773-.487,8.156,8.156,0,0,0,.773-.895l.155-.193a8.811,8.811,0,0,1,1.507-1.432,1.546,1.546,0,0,1,.514-.278,1.522,1.522,0,0,1,.487-.015,12.281,12.281,0,0,0,2.011.075,12.906,12.906,0,0,1,1.412-.143,4.348,4.348,0,0,1,3.039,1.845A2.858,2.858,0,0,1,397.443,169.292Z" transform="translate(-328.462 -144.372)"/><path class="f" d="M376.006,169.6c-.269.441-.753.74-.935,1.223-.267.7.184,1.575-.23,2.2-.137.211-.363.367-.44.609-.131.408.228.842.135,1.262s-.645.773-.5,1.182a.773.773,0,0,0,.425.386,1.662,1.662,0,0,0,.966.214c.527-.087.92-.6,1.455-.643.435-.031.85.27,1.283.214a.29.29,0,0,0,.193-.083.334.334,0,0,0,.064-.147q.487-1.942.85-3.91a4.213,4.213,0,0,1,.29-1.066,1.385,1.385,0,0,1,.773-.75,1.363,1.363,0,0,1,1.426.547,3.346,3.346,0,0,1,.545,1.517,6.544,6.544,0,0,0,.363,1.582.924.924,0,0,0,.352.452.757.757,0,0,0,.9-.216,2.015,2.015,0,0,0,.386-.918,2.759,2.759,0,0,1,.327-.945,2.242,2.242,0,0,1,1.4-.792,4.371,4.371,0,0,0,1.546-.539,3.18,3.18,0,0,0,.846-1.049,3.089,3.089,0,0,0,.529-1.613,2.961,2.961,0,0,0-.792-1.671,4.342,4.342,0,0,0-3.041-1.843,12.019,12.019,0,0,0-1.412.143,12.09,12.09,0,0,1-2.011-.077,1.581,1.581,0,0,0-.487.017,1.456,1.456,0,0,0-.512.278,8.815,8.815,0,0,0-1.509,1.43,11.074,11.074,0,0,1-.931,1.082,2.1,2.1,0,0,1-.773.489c-.193.054-.386.015-.57.075C376.346,168.417,376.27,169.161,376.006,169.6Z" transform="translate(-320.155 -143.59)"/><path class="d" d="M463.389,205.331c-1.546.284-2.827-.966-3.536-1.878a7.58,7.58,0,0,1-.593-.873l5.305,1,.214.041S465.755,204.9,463.389,205.331Z" transform="translate(-388.933 -174.071)"/><g class="g" transform="translate(53.848 24.533)"><path d="M376.032,211.072a1.609,1.609,0,0,0-.112-.742c0,.019-.017.039-.023.058a1.438,1.438,0,0,0,.1.8A.578.578,0,0,0,376.032,211.072Z" transform="translate(-375.5 -204.857)"/><path d="M379.051,197.8a4.292,4.292,0,0,0,.015.8,4.3,4.3,0,0,0-.015-.8Z" transform="translate(-378.058 -194.747)"/><path d="M388.374,183.246a3.168,3.168,0,0,1-.846,1.051,4.316,4.316,0,0,1-1.546.537,2.232,2.232,0,0,0-1.4.792,2.784,2.784,0,0,0-.327.947,2.023,2.023,0,0,1-.386.918.754.754,0,0,1-.9.216.923.923,0,0,1-.352-.452,6.432,6.432,0,0,1-.363-1.582,3.338,3.338,0,0,0-.545-1.517,1.358,1.358,0,0,0-1.426-.547,1.379,1.379,0,0,0-.773.75,4.21,4.21,0,0,0-.29,1.066q-.361,1.969-.85,3.91a.334.334,0,0,1-.064.147.29.29,0,0,1-.193.083c-.433.056-.848-.245-1.283-.214-.535.039-.927.556-1.455.641a1.633,1.633,0,0,1-.966-.214,1.034,1.034,0,0,1-.354-.251.522.522,0,0,0-.071.45.753.753,0,0,0,.425.386,1.633,1.633,0,0,0,.966.214c.527-.085.92-.6,1.455-.641.435-.031.85.27,1.283.214a.29.29,0,0,0,.193-.083.334.334,0,0,0,.064-.147q.487-1.932.85-3.91a4.21,4.21,0,0,1,.29-1.066,1.379,1.379,0,0,1,.773-.75,1.359,1.359,0,0,1,1.426.547,3.346,3.346,0,0,1,.545,1.517,6.542,6.542,0,0,0,.363,1.582.924.924,0,0,0,.352.452.757.757,0,0,0,.9-.216,2.023,2.023,0,0,0,.386-.918,2.783,2.783,0,0,1,.327-.947,2.251,2.251,0,0,1,1.4-.792,4.407,4.407,0,0,0,1.546-.537,3.168,3.168,0,0,0,.846-1.051,3.076,3.076,0,0,0,.529-1.611,2.075,2.075,0,0,0-.023-.22A3.8,3.8,0,0,1,388.374,183.246Z" transform="translate(-373.964 -182)"/></g><path class="d" d="M401.018,173.97a6.825,6.825,0,0,1,.86,2.869c-1.721-.966-3.34-2.027-4.158-2.4-1.424-.643-6.748-.547-8.75-.487a6.747,6.747,0,0,1,.73-1.055,6.989,6.989,0,0,1,1.594-1.395,6.911,6.911,0,0,1,9.733,2.459Z" transform="translate(-332.223 -148.133)"/><path class="d" d="M463.872,204.512c-.929.286-2.446-.267-4.019-1.059a7.58,7.58,0,0,1-.593-.873l5.305,1C464.917,203.82,465.006,204.162,463.872,204.512Z" transform="translate(-388.933 -174.071)"/><path class="h" d="M392.231,154.043s-5.072-.29-6.5,2.463l-.23,2.44-.386-.042-.077,1.66s7.751-.338,9.515.458,7.245,4.807,9.442,4.131-.193-1.3-.193-1.3-3.024-1.281-3.024-2.286S400.03,155.251,392.231,154.043Z" transform="translate(-329.052 -134.904)"/><path class="d" d="M371.63,622.28s3.236,3.14,4.637,2.9C376.267,625.178,372.306,624.84,371.63,622.28Z" transform="translate(-318.233 -512.685)"/><path class="d" d="M368.13,629.81s.29,1.615,1.063,1.457S368.13,629.81,368.13,629.81Z" transform="translate(-315.409 -518.76)"/><path class="d" d="M378.062,769.53s-4.594,3.574-3.82,3.671S378.062,769.53,378.062,769.53Z" transform="translate(-320.27 -631.486)"/><path class="j" d="M330.96,337.221l14.876-2.421v14.084l-14.135-.74Z" transform="translate(-267.022 -270.114)"/><path class="j" d="M407.96,334.8l17.84,1.335-.987,12.257-16.853.493Z" transform="translate(-329.145 -270.114)"/><path class="k" d="M413.445,312.55l-5.485,4.3,17.84,1.335,2.915-4.4Z" transform="translate(-329.145 -252.163)"/><path class="k" d="M303.08,316.221l13.393-1.631,6.87,3.9-14.876,2.421Z" transform="translate(-244.528 -253.809)"/><path class="k" d="M349.1,348.566v19.256l-6.969-.715L339.1,366.8l-.923-.1-3.029-.311-4.185-.429V347.33l14.874,1.012Z" transform="translate(-267.022 -280.223)"/><path class="k" d="M439.419,341.71v18.779l-5.585,1.072-2.716.522-6.277,1.206V344.032Z" transform="translate(-342.764 -275.689)"/><path class="l" d="M303.08,351.383l5.386-4.053,18.138,1.236-2.67,4.5Z" transform="translate(-244.528 -280.223)"/><path class="m" d="M439.419,341.71l-14.579,2.322,4.745,4.25,15.616-2.62Z" transform="translate(-342.764 -275.689)"/><path class="n" d="M439.419,341.71l-14.579,2.322,4.745,4.25,15.616-2.62Z" transform="translate(-342.764 -275.689)"/><path class="n" d="M460.046,427.2l-2.716.522v-4.013l2.544-.641Z" transform="translate(-368.977 -341.33)"/><path class="n" d="M376.111,435.96v2.655l-3.031-.309V435.96Z" transform="translate(-301.004 -351.73)"/><path class="n" d="M355.649,440.29V441.7l-3.029-.311v-1.1Z" transform="translate(-284.497 -355.223)"/><path class="d" d="M449.144,451.428c-2.077,2.656-8.936.821-8.936.821l-5.1-5.317-.692-.721,1.352-2.512s.386.128,1.032.352C440.22,445.246,450.892,449.193,449.144,451.428Z" transform="translate(-368.892 -368.606)"/><path class="c" d="M448.144,449.428c-2.077,2.656-8.935.821-8.935.821l-5.1-5.317-.692-.721,1.352-2.512s.386.128,1.032.352C439.22,443.246,449.892,447.193,448.144,449.428Z" transform="translate(-368.085 -366.993)"/><path class="d" d="M435.764,442.052a11.422,11.422,0,0,1-1.692,2.881l-.692-.721,1.352-2.512S435.121,441.827,435.764,442.052Z" transform="translate(-368.053 -366.993)"/><path class="e" d="M337,287.862s-5.072,1.932-5.12,7.342a88.882,88.882,0,0,0,.58,10.433s-1.449,8.066,2.656,10.384,7.921,4.25,7.921,4.25,6.559,1.063,7.365,1.4,3.605-4.009,3.17-4.733-6.407-2.512-7.116-3.719A6.434,6.434,0,0,0,344,311.2s-1.781-1.215-1.853-2.23a4.565,4.565,0,0,1,.6-2.173c.149-.435.688-4.685.688-4.685S346.32,287.031,337,287.862Z" transform="translate(-286.16 -242.849)"/><path class="d" d="M343.835,380.7s-6.859.773-6.327,3.188A14.429,14.429,0,0,1,343.835,380.7Z" transform="translate(-290.679 -317.778)"/><path class="d" d="M356.742,385.7s-3.893,2.85-3.178,3.043S356.742,385.7,356.742,385.7Z" transform="translate(-303.586 -321.812)"/><path class="d" d="M376.56,391.7s-1.111,2-.483,1.893S376.56,391.7,376.56,391.7Z" transform="translate(-321.666 -326.653)"/><path class="k" d="M721.633,167.38s-7.342-.442-6.484,4.708a1.256,1.256,0,0,0,.653,1.323s.014-.386.754-.253a3.383,3.383,0,0,0,.8.039,1.656,1.656,0,0,0,.978-.4h0s2.065-.852,2.869-4.229c0,0,.6-.738.58-.927l-1.24.531a2.223,2.223,0,0,1,.089,1.638s-.039-1.605-.278-1.569c-.048,0-.643.311-.643.311a3.664,3.664,0,0,1,.178,2.691s.209-1.92-.406-2.579l-.873.51a3.854,3.854,0,0,1,.274,2.923s.149-2.015-.458-2.8l-.792.616a3.771,3.771,0,0,1,.313,2.678s-.064-2.345-.485-2.523a4.78,4.78,0,0,0-.8.862s.547,1.159.207,1.76c0,0-.209-1.563-.386-1.571a5.2,5.2,0,0,0-.761,1.739,3.76,3.76,0,0,1,.593-1.843,2.069,2.069,0,0,0-1.055.547s.106-.732,1.225-.8a5.284,5.284,0,0,1,.723-.835,4.53,4.53,0,0,0-1.787.207,2.024,2.024,0,0,1,1.992-.386l.773-.638a6.666,6.666,0,0,0-2.087.021,2.54,2.54,0,0,1,2.3-.166l.85-.508a7.632,7.632,0,0,0-1.992-.172,3.056,3.056,0,0,1,2.241.035l.609-.272s-.916-.18-1.182-.209-.282-.1-.282-.1a3.161,3.161,0,0,1,1.718.193A7.581,7.581,0,0,0,721.633,167.38Z" transform="translate(-595.328 -145.664)"/><path class="a" d="M837.093,300.72s-7.342-.442-6.484,4.708a1.256,1.256,0,0,0,.653,1.323s.014-.386.755-.253a3.382,3.382,0,0,0,.8.039,1.654,1.654,0,0,0,.966-.4h0s2.067-.854,2.871-4.231c0,0,.593-.736.57-.925l-1.24.529a2.229,2.229,0,0,1,.091,1.638s-.041-1.605-.278-1.569c-.048,0-.645.311-.645.311a3.663,3.663,0,0,1,.18,2.691s.209-1.92-.408-2.579l-.864.5a3.854,3.854,0,0,1,.274,2.923s.149-2.015-.458-2.8l-.79.618a3.776,3.776,0,0,1,.313,2.676s-.064-2.345-.485-2.523a4.846,4.846,0,0,0-.8.862s.549,1.159.209,1.76c0,0-.209-1.563-.386-1.571a5.2,5.2,0,0,0-.761,1.739,3.771,3.771,0,0,1,.6-1.843,2.079,2.079,0,0,0-1.057.547s.108-.732,1.227-.8a4.825,4.825,0,0,1,.723-.835,4.53,4.53,0,0,0-1.787.207,2.007,2.007,0,0,1,1.99-.377l.773-.638a6.668,6.668,0,0,0-2.087.021,2.54,2.54,0,0,1,2.3-.166l.85-.508a7.742,7.742,0,0,0-1.994-.172,3.062,3.062,0,0,1,2.243.035l.609-.272s-.916-.18-1.184-.209-.282-.1-.282-.1a3.167,3.167,0,0,1,1.719.193A7.8,7.8,0,0,0,837.093,300.72Z" transform="translate(-688.481 -253.243)"/><path class="a" d="M612.685,246.766s1.69-7.166-3.534-7.191a1.255,1.255,0,0,0-1.414.417s.373.079.12.786a3.437,3.437,0,0,0-.174.773,1.659,1.659,0,0,0,.23,1.03h0s.489,2.183,3.671,3.551c0,0,.626.711.815.719l-.309-1.312a2.22,2.22,0,0,1-1.631-.193s1.59.234,1.592,0c0-.048-.193-.688-.193-.688a3.668,3.668,0,0,1-2.684-.284s1.857.533,2.612.041l-.348-.951a3.856,3.856,0,0,1-2.929-.228s1.961.491,2.838.027l-.473-.885a3.776,3.776,0,0,1-2.691-.149s2.318.336,2.57-.046a4.8,4.8,0,0,0-.713-.933s-1.229.344-1.77-.095c0,0,1.575.06,1.611-.106a5.209,5.209,0,0,0-1.59-1.049,3.787,3.787,0,0,1,1.718.9,2.084,2.084,0,0,0-.359-1.134s.7.232.58,1.352a4.812,4.812,0,0,1,.7.854,4.543,4.543,0,0,0,.1-1.8,2.008,2.008,0,0,1,.033,2.027l.495.879a6.411,6.411,0,0,0,.334-2.06,2.533,2.533,0,0,1-.228,2.291l.357.925a7.738,7.738,0,0,0,.508-1.932,3.054,3.054,0,0,1-.417,2.2l.166.645s.332-.871.406-1.13.149-.261.149-.261a3.165,3.165,0,0,1-.481,1.662A7.675,7.675,0,0,0,612.685,246.766Z" transform="translate(-508.673 -203.861)"/><path class="a" d="M515.509,281.98s-5.9-4.411-8,.367a1.257,1.257,0,0,0-.182,1.464s.22-.311.773.2a3.382,3.382,0,0,0,.645.471,1.657,1.657,0,0,0,1.037.193h0s2.195.423,4.722-1.955c0,0,.9-.29.987-.46l-1.331-.234a2.232,2.232,0,0,1-.825,1.418s.848-1.364.628-1.463c-.044-.021-.709-.1-.709-.1a3.666,3.666,0,0,1-1.329,2.347s1.231-1.49,1.078-2.378l-1.01-.054a3.854,3.854,0,0,1-1.378,2.595s1.231-1.6,1.159-2.591l-1,.081a3.765,3.765,0,0,1-1.209,2.405s1.235-1.994.981-2.372a4.857,4.857,0,0,0-1.14.28s-.176,1.264-.794,1.584c0,0,.686-1.42.547-1.519a5.194,5.194,0,0,0-1.6,1.038,3.773,3.773,0,0,1,1.511-1.213,2.08,2.08,0,0,0-1.182-.124s.491-.553,1.461.01a4.879,4.879,0,0,1,1.063-.3,4.522,4.522,0,0,0-1.607-.81,2.011,2.011,0,0,1,1.872.773l1-.1a6.617,6.617,0,0,0-1.754-1.128s.933-.118,2.009,1.122l.989.044a7.712,7.712,0,0,0-1.569-1.24,3.055,3.055,0,0,1,1.853,1.262l.659.106s-.667-.653-.875-.823-.18-.242-.18-.242a3.174,3.174,0,0,1,1.331,1.105A7.811,7.811,0,0,0,515.509,281.98Z" transform="translate(-427.576 -236.633)"/><path class="a" d="M617.119,69.866s-5.9-4.413-8,.367a1.257,1.257,0,0,0-.182,1.464s.22-.311.773.2a3.438,3.438,0,0,0,.647.469,1.656,1.656,0,0,0,1.037.193h0s2.195.423,4.722-1.957c0,0,.9-.288.985-.46l-1.331-.23a2.222,2.222,0,0,1-.825,1.418s.85-1.364.63-1.463c-.044-.021-.709-.1-.709-.1a3.682,3.682,0,0,1-1.337,2.347s1.229-1.49,1.078-2.378l-1.01-.054a3.857,3.857,0,0,1-1.378,2.593s1.231-1.6,1.159-2.591l-1,.081a3.774,3.774,0,0,1-1.211,2.407s1.237-1.994.983-2.372a4.857,4.857,0,0,0-1.14.28s-.176,1.264-.794,1.584c0,0,.686-1.42.547-1.52a5.213,5.213,0,0,0-1.6,1.039,3.756,3.756,0,0,1,1.511-1.213,2.067,2.067,0,0,0-1.184-.124s.493-.553,1.463.01a4.771,4.771,0,0,1,1.063-.3,4.547,4.547,0,0,0-1.607-.811,2.014,2.014,0,0,1,1.87.773l1-.1a6.624,6.624,0,0,0-1.754-1.13s.933-.116,2.011,1.124l.989.043a7.632,7.632,0,0,0-1.571-1.238,3.056,3.056,0,0,1,1.855,1.262l.657.106s-.668-.645-.877-.811-.18-.24-.18-.24a3.169,3.169,0,0,1,1.331,1.105A8.341,8.341,0,0,0,617.119,69.866Z" transform="translate(-509.555 -65.499)"/><path class="a" d="M736.122,86.2s-2.357-6.976-6.8-4.235a1.27,1.27,0,0,0-.979,1.1s.357-.131.516.6a3.477,3.477,0,0,0,.265.755,1.673,1.673,0,0,0,.742.752h0s1.569,1.594,5,1.066c0,0,.906.274,1.072.18l-.966-.949a2.222,2.222,0,0,1-1.484.7s1.474-.641,1.352-.848c-.025-.041-.529-.479-.529-.479a3.672,3.672,0,0,1-2.427,1.179s1.857-.529,2.235-1.352l-.8-.616a3.85,3.85,0,0,1-2.606,1.352s1.932-.62,2.421-1.478l-.869-.5a3.739,3.739,0,0,1-2.361,1.3s2.148-.941,2.154-1.4a4.831,4.831,0,0,0-1.1-.415s-.862.941-1.546.856c0,0,1.368-.782,1.31-.943a5.184,5.184,0,0,0-1.9-.048,3.766,3.766,0,0,1,1.932-.145,2.085,2.085,0,0,0-.906-.773s.719-.176,1.2.837a4.865,4.865,0,0,1,1.043.355,4.54,4.54,0,0,0-.864-1.578,2.012,2.012,0,0,1,1.1,1.7l.885.483a6.521,6.521,0,0,0-.806-1.932s.837.433,1.018,2.065l.792.6a7.679,7.679,0,0,0-.591-1.913,3.059,3.059,0,0,1,.811,2.092l.481.46s-.178-.916-.251-1.175-.014-.276-.014-.276a3.186,3.186,0,0,1,.469,1.665A7.7,7.7,0,0,0,736.122,86.2Z" transform="translate(-606.026 -76.243)"/><path class="a" d="M660.8,108.136s-7.322-.815-6.718,4.38a1.254,1.254,0,0,0,.58,1.352s.033-.386.773-.213a3.555,3.555,0,0,0,.8.079,1.662,1.662,0,0,0,.995-.354h0s2.108-.748,3.091-4.08c0,0,.63-.705.616-.9l-1.266.468a2.155,2.155,0,0,1,0,1.64s.041-1.605-.193-1.58c-.048,0-.659.278-.659.278a3.685,3.685,0,0,1,.043,2.7s.305-1.909-.276-2.6l-.9.464a3.84,3.84,0,0,1,.126,2.935s.251-2.005-.315-2.819l-.821.58a3.772,3.772,0,0,1,.176,2.689s.056-2.345-.356-2.544a5.024,5.024,0,0,0-.84.819s.489,1.179.12,1.768c0,0-.129-1.571-.3-1.586a5.2,5.2,0,0,0-.85,1.7,3.761,3.761,0,0,1,.688-1.812,2.079,2.079,0,0,0-1.082.493s.143-.725,1.263-.732c0,0,.609-.755.773-.8a4.542,4.542,0,0,0-1.8.116,2,2,0,0,1,2.007-.276l.813-.6a6.265,6.265,0,0,0-2.092-.1,2.516,2.516,0,0,1,2.3-.048l.875-.466a7.693,7.693,0,0,0-1.982-.272,3.034,3.034,0,0,1,2.237.149l.622-.242s-.906-.226-1.173-.269-.276-.116-.276-.116a3.178,3.178,0,0,1,1.708.278A7.905,7.905,0,0,0,660.8,108.136Z" transform="translate(-546.086 -97.835)"/><path class="a" d="M992.415,402.305s-7.318-.815-6.714,4.374a1.254,1.254,0,0,0,.58,1.352s.033-.386.773-.214a3.343,3.343,0,0,0,.8.079,1.648,1.648,0,0,0,.995-.354h0s2.108-.748,3.082-4.078c0,0,.63-.707.616-.9l-1.265.466a2.16,2.16,0,0,1,0,1.642s.041-1.607-.193-1.58c-.048,0-.659.276-.659.276a3.685,3.685,0,0,1,.042,2.7s.305-1.907-.276-2.6l-.9.466a3.846,3.846,0,0,1,.128,2.935s.249-2.005-.317-2.821l-.821.58a3.768,3.768,0,0,1,.176,2.687s.056-2.345-.355-2.543a5.1,5.1,0,0,0-.84.819s.491,1.179.12,1.768c0,0-.129-1.571-.3-1.586a5.2,5.2,0,0,0-.85,1.7,3.761,3.761,0,0,1,.688-1.812,2.061,2.061,0,0,0-1.082.493s.143-.726,1.263-.734c0,0,.611-.755.773-.794a4.527,4.527,0,0,0-1.8.114,2.01,2.01,0,0,1,2.009-.274l.811-.6a6.456,6.456,0,0,0-2.085-.085,2.518,2.518,0,0,1,2.3-.05l.875-.464a7.694,7.694,0,0,0-1.982-.272,3.035,3.035,0,0,1,2.237.149l.622-.243s-.906-.226-1.173-.267-.276-.116-.276-.116a3.167,3.167,0,0,1,1.708.276A7.567,7.567,0,0,0,992.415,402.305Z" transform="translate(-813.637 -335.171)"/><path class="a" d="M1050.325,437.686s-7.318-.813-6.714,4.374a1.257,1.257,0,0,0,.58,1.352s.033-.386.773-.213a3.41,3.41,0,0,0,.794.077,1.669,1.669,0,0,0,.991-.352h0s2.106-.748,3.08-4.08c0,0,.632-.705.616-.9l-1.266.466a2.16,2.16,0,0,1,0,1.642s.041-1.605-.193-1.58c-.048,0-.659.276-.659.276a3.685,3.685,0,0,1,.042,2.7s.305-1.907-.276-2.595l-.9.464a3.846,3.846,0,0,1,.128,2.935s.249-2.005-.317-2.819l-.821.58a3.779,3.779,0,0,1,.178,2.689s.054-2.347-.357-2.544a5.1,5.1,0,0,0-.84.819s.491,1.179.12,1.768c0,0-.13-1.571-.3-1.586a5.166,5.166,0,0,0-.848,1.7,3.771,3.771,0,0,1,.686-1.812,2.079,2.079,0,0,0-1.082.493s.145-.726,1.266-.732c0,0,.609-.755.773-.8a4.542,4.542,0,0,0-1.8.116,2.007,2.007,0,0,1,2.009-.276l.811-.6a6.456,6.456,0,0,0-2.085-.085,2.516,2.516,0,0,1,2.3-.048l.875-.466a7.694,7.694,0,0,0-1.982-.272,3.035,3.035,0,0,1,2.237.149l.622-.241s-.906-.226-1.171-.269-.278-.116-.278-.116a3.178,3.178,0,0,1,1.708.278A7.641,7.641,0,0,0,1050.325,437.686Z" transform="translate(-860.359 -363.717)"/><path class="a" d="M915.059,132.12s-5.9-4.411-8,.367a1.257,1.257,0,0,0-.182,1.464s.22-.311.773.2a3.382,3.382,0,0,0,.645.471,1.659,1.659,0,0,0,1.037.193h0s2.195.423,4.724-1.955c0,0,.9-.29.985-.46l-1.327-.24a2.232,2.232,0,0,1-.825,1.418s.848-1.364.628-1.463c-.044-.021-.707-.1-.707-.1a3.672,3.672,0,0,1-1.331,2.347s1.231-1.49,1.078-2.378l-1.01-.054a3.854,3.854,0,0,1-1.378,2.595s1.233-1.6,1.159-2.591l-1,.081a3.714,3.714,0,0,1-1.209,2.405s1.237-1.994.981-2.372a4.857,4.857,0,0,0-1.14.28s-.174,1.264-.792,1.584c0,0,.684-1.42.545-1.519a5.193,5.193,0,0,0-1.6,1.037,3.774,3.774,0,0,1,1.511-1.213,2.081,2.081,0,0,0-1.182-.124s.493-.553,1.463.01a4.857,4.857,0,0,1,1.061-.3,4.521,4.521,0,0,0-1.607-.81,2.011,2.011,0,0,1,1.872.773l1-.1a6.583,6.583,0,0,0-1.754-1.128s.933-.118,2.009,1.122l.991.044a7.747,7.747,0,0,0-1.571-1.24,3.05,3.05,0,0,1,1.853,1.262l.659.106s-.667-.653-.875-.823-.178-.226-.178-.226A3.176,3.176,0,0,1,913.7,131.9,7.758,7.758,0,0,0,915.059,132.12Z" transform="translate(-749.933 -115.726)"/><path class="a" d="M941.643,283.447s-2.032-7.077-6.6-4.536a1.255,1.255,0,0,0-1.03,1.057s.363-.114.489.626a3.427,3.427,0,0,0,.232.773,1.66,1.66,0,0,0,.707.788h0s1.5,1.661,4.946,1.291c0,0,.893.313,1.063.228l-.914-.993a2.222,2.222,0,0,1-1.513.634s1.5-.58,1.383-.786c-.023-.043-.506-.5-.506-.5a3.66,3.66,0,0,1-2.477,1.068s1.88-.444,2.293-1.244l-.773-.653a3.86,3.86,0,0,1-2.664,1.236s1.947-.535,2.484-1.368l-.846-.539a3.764,3.764,0,0,1-2.417,1.188s2.189-.844,2.216-1.3a4.825,4.825,0,0,0-1.08-.464s-.9.9-1.588.784c0,0,1.4-.721,1.352-.883a5.218,5.218,0,0,0-1.9-.135,3.769,3.769,0,0,1,1.932-.056,2.073,2.073,0,0,0-.869-.811s.726-.145,1.159.889a4.821,4.821,0,0,1,1.026.4,4.518,4.518,0,0,0-.792-1.615,2.007,2.007,0,0,1,1.022,1.75l.862.524a6.425,6.425,0,0,0-.719-1.959,2.537,2.537,0,0,1,.925,2.108l.773.632a7.663,7.663,0,0,0-.5-1.932,3.053,3.053,0,0,1,.717,2.125l.46.483s-.135-.923-.193-1.186,0-.3,0-.3a3.167,3.167,0,0,1,.4,1.685A7.665,7.665,0,0,0,941.643,283.447Z" transform="translate(-771.961 -235.21)"/><path class="a" d="M704.352,371.85s-3.947-6.217-7.612-2.5a1.25,1.25,0,0,0-.692,1.3s.319-.213.647.464a3.307,3.307,0,0,0,.437.668,1.65,1.65,0,0,0,.9.556h0s1.9,1.175,5.11-.155c0,0,.945.05,1.084-.079l-1.159-.7a2.221,2.221,0,0,1-1.275,1.034s1.279-.966,1.107-1.144c-.033-.035-.628-.34-.628-.34a3.67,3.67,0,0,1-2.077,1.721s1.679-.956,1.853-1.841l-.925-.408a3.848,3.848,0,0,1-2.208,1.932s1.719-1.061,2-2.011l-.966-.278s-.815,1.578-1.984,1.82c0,0,1.862-1.426,1.76-1.87a4.8,4.8,0,0,0-1.159-.141s-.612,1.119-1.3,1.2c0,0,1.144-1.086,1.049-1.229a5.206,5.206,0,0,0-1.86.406,3.759,3.759,0,0,1,1.843-.6,2.073,2.073,0,0,0-1.061-.535s.655-.342,1.352.527a4.773,4.773,0,0,1,1.1.1,4.447,4.447,0,0,0-1.215-1.327s.908.077,1.472,1.393l.976.259a6.461,6.461,0,0,0-1.24-1.677s.914.22,1.48,1.764l.912.386a7.7,7.7,0,0,0-1.03-1.716,3.044,3.044,0,0,1,1.285,1.837l.58.334s-.386-.848-.524-1.082-.083-.288-.083-.288a3.169,3.169,0,0,1,.852,1.505A7.856,7.856,0,0,0,704.352,371.85Z" transform="translate(-579.959 -307.666)"/><path class="k" d="M838.807,206.777s-3.754-6.335-7.535-2.73a1.256,1.256,0,0,0-.73,1.283s.323-.2.632.481a3.337,3.337,0,0,0,.415.684,1.64,1.64,0,0,0,.881.58h0s1.864,1.233,5.112,0c0,0,.943.079,1.086-.046l-1.134-.73a2.221,2.221,0,0,1-1.306.993s1.308-.933,1.144-1.109c-.035-.037-.618-.361-.618-.361a3.672,3.672,0,0,1-2.125,1.658s1.708-.9,1.907-1.781l-.912-.429a3.853,3.853,0,0,1-2.268,1.866s1.752-1.007,2.061-1.947l-.954-.309s-.866,1.546-2.04,1.758c0,0,1.9-1.368,1.816-1.814a4.772,4.772,0,0,0-1.159-.178s-.647,1.1-1.341,1.159c0,0,1.177-1.047,1.088-1.194a5.2,5.2,0,0,0-1.872.348,3.771,3.771,0,0,1,1.861-.541,2.077,2.077,0,0,0-1.045-.568s.667-.323,1.352.568a4.894,4.894,0,0,1,1.1.131,4.621,4.621,0,0,0-1.173-1.364s.9.1,1.428,1.437l.966.29a6.423,6.423,0,0,0-1.188-1.716s.908.249,1.426,1.808l.9.419a7.763,7.763,0,0,0-.966-1.739,3.056,3.056,0,0,1,1.229,1.876l.566.352s-.363-.86-.491-1.1-.073-.29-.073-.29a3.174,3.174,0,0,1,.806,1.53A7.48,7.48,0,0,0,838.807,206.777Z" transform="translate(-688.473 -174.359)"/><path class="k" d="M724.453,264.935s.193-7.361-4.921-6.323a1.259,1.259,0,0,0-1.3.7s.386,0,.278.744a3.4,3.4,0,0,0-.012.8,1.652,1.652,0,0,0,.435.966h0s.922,2.036,4.324,2.728c0,0,.755.57.945.539l-.58-1.221a2.23,2.23,0,0,1-1.635.145s1.6-.095,1.559-.33c0-.048-.332-.636-.332-.636a3.657,3.657,0,0,1-2.684.269s1.932.145,2.564-.491l-.539-.856a3.859,3.859,0,0,1-2.914.371s2.019.081,2.784-.551l-.643-.773a3.767,3.767,0,0,1-2.664.4s2.342-.141,2.512-.568a5.01,5.01,0,0,0-.889-.773s-1.132.58-1.75.267c0,0,1.546-.259,1.555-.431a5.185,5.185,0,0,0-1.77-.7,3.762,3.762,0,0,1,1.864.533,2.077,2.077,0,0,0-.58-1.037s.736.083.837,1.2a4.8,4.8,0,0,1,.858.7,4.518,4.518,0,0,0-.267-1.779,2,2,0,0,1,.444,1.976l.663.761a6.47,6.47,0,0,0-.091-2.085,2.54,2.54,0,0,1,.243,2.289l.535.833a7.7,7.7,0,0,0,.106-2,3.066,3.066,0,0,1,.039,2.243l.294.6s.149-.922.168-1.19.093-.286.093-.286a3.172,3.172,0,0,1-.133,1.725A7.363,7.363,0,0,0,724.453,264.935Z" transform="translate(-597.87 -219.196)"/><ellipse class="a" cx="5.203" cy="0.879" rx="5.203" ry="0.879" transform="translate(129.835 137.513)"/><ellipse class="a" cx="5.203" cy="0.879" rx="5.203" ry="0.879" transform="translate(110.868 150.859)"/><ellipse class="o" cx="5.203" cy="0.879" rx="5.203" ry="0.879" transform="translate(12.788 144.022)"/><ellipse class="a" cx="5.203" cy="0.879" rx="5.203" ry="0.879" transform="translate(150.331 149.98)"/><ellipse class="l" cx="7.769" cy="1.314" rx="7.769" ry="1.314" transform="translate(153.183 138.392)"/><path class="l" d="M914.991,752.058a2.243,2.243,0,0,0,.74-1.117.992.992,0,0,0-.516-1.138,1.459,1.459,0,0,0-1.37.479,1.835,1.835,0,0,1-1.329.643,2.029,2.029,0,0,0,.626-1.9.794.794,0,0,0-.174-.386c-.265-.282-.742-.16-1.059.062a3.944,3.944,0,0,0-1.291,3.3,6.2,6.2,0,0,1-.017-1.352,1.387,1.387,0,0,0-.512-1.2,1.528,1.528,0,0,0-.773-.193,1.614,1.614,0,0,0-1.264.359,1.245,1.245,0,0,0,.048,1.546,5,5,0,0,0,1.308,1.047,2.923,2.923,0,0,1,.935.891.909.909,0,0,1,.068.158h2.832A7.817,7.817,0,0,0,914.991,752.058Z" transform="translate(-750.819 -614.503)"/><path class="p" d="M170.29,777.175s2.966-.091,3.864-.728,4.565-1.4,4.787-.375,4.459,5.079,1.109,5.106-7.784-.522-8.677-1.066S170.29,777.175,170.29,777.175Z" transform="translate(-155.792 -636.36)"/><path class="q" d="M180.107,787.5c-3.35.027-7.784-.522-8.677-1.067-.68-.413-.951-1.9-1.041-2.585h-.1s.193,2.394,1.08,2.937,5.327,1.094,8.677,1.066c.966,0,1.3-.352,1.283-.862C181.194,787.3,180.825,787.5,180.107,787.5Z" transform="translate(-155.792 -643.039)"/></g></svg>