<svg xmlns="http://www.w3.org/2000/svg" width="205.779" height="132.542" viewBox="0 0 205.779 132.542"><defs><style>.a{fill:#e6e6e6;}.b{fill:#3f3d56;}.c{fill:#fff;}.d{fill:#ff6584;}.e{fill:#bb271f;}.f{opacity:0.2;}.g{fill:#2f2e41;}.h{fill:#eaccca;}</style></defs><g transform="translate(0 0)"><path class="a" d="M169.711,586.346l-1.453-5.73a74.4,74.4,0,0,0-7.894-2.832l-.183,2.663-.744-2.934c-3.327-.95-5.59-1.368-5.59-1.368s3.057,11.626,9.469,20.513l7.472,1.313-5.8.837a30.09,30.09,0,0,0,2.6,2.752c9.328,8.658,19.718,12.631,23.206,8.873s-1.246-13.823-10.574-22.482a39.635,39.635,0,0,0-10.161-6.533Z" transform="translate(-153.846 -479.739)"/><path class="a" d="M245.924,536.96l1.718-5.656a74.414,74.414,0,0,0-5.294-6.505l-1.534,2.185.88-2.9c-2.357-2.533-4.078-4.061-4.078-4.061s-3.392,11.532-2.5,22.455l5.718,4.986-5.4-2.284a30.1,30.1,0,0,0,.8,3.7c3.51,12.234,10.35,21,15.279,19.591s6.079-12.477,2.569-24.711a39.634,39.634,0,0,0-5.321-10.845Z" transform="translate(-216.242 -436.576)"/><path class="a" d="M933.156,606.637l3.257-2.047a48.413,48.413,0,0,0,.172-5.456l-1.686.42,1.668-1.048c-.078-2.25-.272-3.736-.272-3.736a46.408,46.408,0,0,0-10.805,9.973l.684,4.889-1.681-3.427a19.573,19.573,0,0,0-1.184,2.159c-3.493,7.51-3.871,14.739-.846,16.146s8.31-3.54,11.8-11.051a25.8,25.8,0,0,0,2.01-7.6Z" transform="translate(-743.456 -494.065)"/><path class="a" d="M941.484,649.4l3.847-.069a48.43,48.43,0,0,0,2.968-4.581l-1.66-.512,1.969-.035c1.1-1.967,1.7-3.339,1.7-3.339a46.41,46.41,0,0,0-14.4,2.952l-1.942,4.539.332-3.8a19.585,19.585,0,0,0-2.129,1.236c-6.872,4.624-10.933,10.616-9.07,13.385s8.944,1.265,15.816-3.359a25.792,25.792,0,0,0,5.65-5.467Z" transform="translate(-745.163 -529.517)"/><rect class="b" width="204.995" height="0.517" transform="translate(0.468 131.879)"/><rect class="c" width="0.594" height="3.207" transform="matrix(0.894, 0.448, -0.448, 0.894, 58.134, 14.007)"/><rect class="b" width="0.177" height="0.956" transform="translate(55.43 86.034) rotate(-6.648)"/><rect class="c" width="0.177" height="0.956" transform="translate(56.6 94.226) rotate(71.644)"/><rect class="c" width="0.177" height="0.956" transform="translate(55.657 89.482) rotate(-3.441)"/><rect class="c" width="0.177" height="0.956" transform="translate(54.831 84.248) rotate(-3.441)"/><rect class="d" width="0.177" height="0.956" transform="matrix(0.375, 0.927, -0.927, 0.375, 67.57, 87.977)"/><rect class="d" width="0.177" height="0.956" transform="matrix(0.966, 0.259, -0.259, 0.966, 57.014, 87.817)"/><rect class="b" width="0.558" height="3.014" transform="translate(66.134 16.3)"/><rect class="c" width="0.558" height="3.014" transform="translate(65.799 23.556)"/><rect class="c" width="0.166" height="0.899" transform="translate(65.817 86.439) rotate(45)"/><rect class="c" width="0.166" height="0.899" transform="translate(67.487 96.064) rotate(45)"/><rect class="d" width="0.166" height="0.899" transform="matrix(0.966, 0.259, -0.259, 0.966, 66.112, 92.149)"/><rect class="d" width="0.166" height="0.899" transform="translate(66.57 88.792) rotate(45)"/><path class="b" d="M346.152,538.865a.763.763,0,0,0-1.08-1.08l-24.359,24.359a.763.763,0,0,0,1.08,1.08l24.2-24.2" transform="translate(-282.02 -450.064)"/><path class="e" d="M377.179,518.706a11.476,11.476,0,1,0,2.857,11.5A11.476,11.476,0,0,0,377.179,518.706Zm-9.4,12.488a4.75,4.75,0,0,1-2.089-1.219c-.117-.117-.226-.241-.33-.367a4.76,4.76,0,1,1,2.419,1.586Z" transform="translate(-310.557 -432.979)"/><path class="b" d="M312.707,244.95a2.561,2.561,0,1,0-5.122,0V352.882a2.561,2.561,0,1,0,5.122,0V245.694" transform="translate(-272.095 -223.032)"/><path class="e" d="M229.412,180.95a38.526,38.526,0,1,0,4.467,18.018,38.526,38.526,0,0,0-4.467-18.018Zm-26.2,31.924a15.967,15.967,0,1,1,8.118-13.907A15.967,15.967,0,0,1,203.209,212.874Z" transform="translate(-156.134 -159.988)"/><path class="f" d="M194.96,359.259a38.515,38.515,0,0,1-38.5-37.315q-.02.624-.02,1.254a38.517,38.517,0,1,0,77.033,0q0-.631-.02-1.256A38.516,38.516,0,0,1,194.96,359.259Z" transform="translate(-155.844 -284.22)"/><path class="f" d="M259.744,244.131a19.219,19.219,0,1,0,19.22,19.219A19.218,19.218,0,0,0,259.744,244.131Zm7.847,33.126a15.967,15.967,0,1,1,8.118-13.907A15.967,15.967,0,0,1,267.591,277.258Z" transform="translate(-220.516 -224.372)"/><path class="a" d="M246.605,179.035v6.407a2.343,2.343,0,0,1-4.035,1.622v.73a2.783,2.783,0,1,1-5.566,0v-.608a2.342,2.342,0,0,1-3.907-1.744l-.112-6.81v-1.571a.949.949,0,0,0-1.9,0v1.571l-.112,5.694a2.344,2.344,0,1,1-4.689,0L226,178.632v-2.911a1.555,1.555,0,1,0-3.11,0v2.911l-.175,5.694a2.343,2.343,0,0,1-4.187,1.447,2.338,2.338,0,0,1-3.2.464v1.557a2.783,2.783,0,1,1-5.566,0v-4.808a2.344,2.344,0,0,1-4.481.961v3.847a2.783,2.783,0,0,1-5.566,0v-9.162H199.7v9.162a2.783,2.783,0,0,1-5.566,0V183.98a2.343,2.343,0,0,1-4.466-.994v-4.354h-.239v7.823a2.783,2.783,0,1,1-5.566,0v-3.469a2.344,2.344,0,1,1-4.689,0v-5.161a38.53,38.53,0,0,1,67.432,1.21Z" transform="translate(-173.326 -158.537)"/><path class="f" d="M246.761,282.257a2.783,2.783,0,0,1-2.783-2.783v1.452a2.783,2.783,0,0,0,5.567,0v-1.451a2.783,2.783,0,0,1-2.783,2.783Z" transform="translate(-223.171 -251.555)"/><path class="f" d="M270.941,282.257a2.783,2.783,0,0,1-2.783-2.783v1.452a2.783,2.783,0,0,0,5.567,0v-1.451a2.783,2.783,0,0,1-2.783,2.783Z" transform="translate(-241.769 -251.555)"/><path class="f" d="M229.1,259.639a2.343,2.343,0,0,1-4.466-.994V260.1a2.343,2.343,0,0,0,4.466.994Z" transform="translate(-208.292 -235.535)"/><rect class="f" width="0.016" height="1.451" transform="translate(26.373 18.756)"/><path class="f" d="M183.862,258.645a2.344,2.344,0,0,1-4.689,0V260.1a2.344,2.344,0,1,0,4.689,0Z" transform="translate(-173.326 -235.535)"/><rect class="f" width="0.239" height="1.451" transform="translate(16.102 18.756)"/><path class="f" d="M202.268,276.453a2.783,2.783,0,0,1-2.783-2.783v1.452a2.783,2.783,0,1,0,5.566,0V273.67a2.783,2.783,0,0,1-2.783,2.783Z" transform="translate(-188.949 -247.092)"/><path class="f" d="M314.467,282.257a2.783,2.783,0,0,1-2.783-2.783v1.452a2.783,2.783,0,0,0,5.567,0v-1.451a2.783,2.783,0,0,1-2.783,2.783Z" transform="translate(-275.247 -251.555)"/><path class="f" d="M405.952,229.818a.949.949,0,0,0-1.9,0v1.451a.949.949,0,0,1,1.9,0Z" transform="translate(-346.293 -212.633)"/><path class="f" d="M296.753,258.645a2.344,2.344,0,0,1-4.481.961v1.451a2.344,2.344,0,0,0,4.481-.961Z" transform="translate(-260.316 -235.535)"/><path class="f" d="M384.647,247.822a2.344,2.344,0,0,1-2.344-2.345l-.287-5.693v1.451l.287,5.694a2.344,2.344,0,1,0,4.689,0l.112-5.694v-1.451l-.112,5.694a2.344,2.344,0,0,1-2.345,2.344Z" transform="translate(-329.342 -221.028)"/><path class="f" d="M423.551,248.939a2.337,2.337,0,0,1-1.69-.722v.73a2.783,2.783,0,1,1-5.566,0v-.608a2.342,2.342,0,0,1-3.908-1.744l-.112-6.81v1.451l.112,6.81a2.342,2.342,0,0,0,3.908,1.744v.608a2.783,2.783,0,1,0,5.566,0v-.73a2.343,2.343,0,0,0,4.035-1.622v-1.451a2.344,2.344,0,0,1-2.345,2.344Z" transform="translate(-352.616 -221.028)"/><path class="f" d="M340.836,247.822a2.339,2.339,0,0,1-1.842-.9,2.338,2.338,0,0,1-3.2.465v1.451a2.338,2.338,0,0,0,3.2-.464,2.343,2.343,0,0,0,4.187-1.447l.175-5.694v-1.451l-.175,5.694a2.344,2.344,0,0,1-2.345,2.345Z" transform="translate(-293.793 -221.028)"/><path class="f" d="M371.652,221.995a1.555,1.555,0,0,0-3.11,0v1.451a1.555,1.555,0,1,1,3.11,0Z" transform="translate(-318.979 -206.149)"/><rect class="b" width="0.558" height="3.014" transform="translate(26.11 16.132)"/><rect class="b" width="0.558" height="3.014" transform="translate(36.66 14.513)"/><rect class="b" width="0.558" height="3.014" transform="translate(23.263 26.347)"/><rect class="b" width="0.558" height="3.014" transform="matrix(0.822, 0.569, -0.569, 0.822, 46.163, 20.763)"/><rect class="b" width="0.558" height="3.014" transform="translate(16.716 16.756) rotate(-51.648)"/><rect class="b" width="0.558" height="3.014" transform="translate(49.539 5.48) rotate(-51.648)"/><rect class="b" width="0.558" height="3.014" transform="translate(10.576 19.882) rotate(-51.648)"/><rect class="c" width="0.558" height="3.014" transform="translate(28.175 9.043)"/><rect class="c" width="0.558" height="3.014" transform="translate(12.88 24.561)"/><rect class="c" width="0.558" height="3.014" transform="translate(39.005 4.689)"/><rect class="c" width="0.558" height="3.014" transform="matrix(0.894, 0.448, -0.448, 0.894, 42.166, 14.995)"/><rect class="c" width="0.558" height="3.014" transform="matrix(0.894, 0.448, -0.448, 0.894, 39.598, 26.159)"/><rect class="c" width="0.558" height="3.014" transform="matrix(0.663, -0.748, 0.748, 0.663, 32.054, 20.7)"/><rect class="c" width="0.558" height="3.014" transform="matrix(0.663, -0.748, 0.748, 0.663, 21.001, 7.638)"/><rect class="c" width="0.558" height="3.014" transform="matrix(0.663, -0.748, 0.748, 0.663, 57.731, 12.662)"/><rect class="c" width="0.558" height="3.014" transform="matrix(0.663, -0.748, 0.748, 0.663, 44.223, 2.837)"/><rect class="d" width="0.558" height="3.014" transform="translate(32.418 14.513)"/><rect class="d" width="0.558" height="3.014" transform="matrix(0.92, 0.391, -0.391, 0.92, 63.954, 16.198)"/><rect class="d" width="0.558" height="3.014" transform="translate(21.319 19.656) rotate(-30)"/><rect class="d" width="0.558" height="3.014" transform="translate(53.249 17.534) rotate(-30)"/><rect class="d" width="0.558" height="3.014" transform="translate(33.377 6.482) rotate(-30)"/><rect class="d" width="0.558" height="3.014" transform="translate(57.045 5.924) rotate(-30)"/><rect class="d" width="0.558" height="3.014" transform="translate(26.343 3.467) rotate(-30)"/><rect class="d" width="0.558" height="3.014" transform="translate(46.373 8.485)"/><rect class="d" width="0.558" height="3.014" transform="translate(14.22 13.509)"/><path class="f" d="M361.308,544.646a11.481,11.481,0,0,1-.249-15.98q-.136.128-.269.26a11.482,11.482,0,0,0,16.238,16.238q.133-.133.26-.269A11.481,11.481,0,0,1,361.308,544.646Z" transform="translate(-310.431 -443.221)"/><path class="f" d="M390.486,539.261a6.388,6.388,0,1,0,0,9.032,6.388,6.388,0,0,0,0-9.032Zm-1.15,7.665a4.762,4.762,0,0,1-6.732,0c-.117-.117-.226-.241-.33-.367a4.759,4.759,0,1,1,7.062.367Z" transform="translate(-327.468 -449.93)"/><path class="a" d="M405,529.184l-1.351,1.351a.7.7,0,0,1-1.192-.508l-.154.154a.83.83,0,0,1-1.173-1.173l.128-.128a.7.7,0,0,1-.456-1.191l1.412-1.459.331-.331a.283.283,0,1,0-.4-.4l-.331.331L400.586,527a.7.7,0,1,1-.988-.988l1.14-1.261.613-.614a.464.464,0,0,0-.656-.656l-.613.613-1.237,1.163a8.008,8.008,0,0,0-1.765-.777.7.7,0,0,1-.194-.377l-.328.328a.83.83,0,1,1-1.173-1.173l1.014-1.014a.7.7,0,0,1-1.147-.742l-.811.811a.83.83,0,0,1-1.173-1.173l1.931-1.931,0,0-1.931,1.931a.83.83,0,0,1-1.173-1.173l.8-.8a.7.7,0,0,1-.732-1.151l.918-.918-.05-.05-1.649,1.649a.83.83,0,0,1-1.173-1.173l.731-.731a.7.7,0,0,1-.988-.988l1.088-1.088A11.486,11.486,0,0,1,405,529.184Z" transform="translate(-335.287 -432.188)"/><path class="f" d="M399.295,538.74a.83.83,0,0,1,0-1.173l-.306.306a.83.83,0,0,0,1.173,1.173l.306-.306A.83.83,0,0,1,399.295,538.74Z" transform="translate(-342.21 -450.067)"/><path class="f" d="M404.392,543.837a.83.83,0,0,1,0-1.173l-.306.306a.83.83,0,0,0,1.173,1.173l.306-.306a.83.83,0,0,1-1.173,0Z" transform="translate(-346.131 -453.988)"/><path class="f" d="M400.466,530.249a.7.7,0,0,1-.732-1.151l-.306.306a.7.7,0,0,0,.732,1.151Z" transform="translate(-342.578 -443.554)"/><rect class="f" width="0.433" height="0.005" transform="translate(59.884 87.047) rotate(-45)"/><path class="f" d="M391.141,520.5a.7.7,0,0,1-.988-.988l-.306.306a.7.7,0,0,0,.988.988Z" transform="translate(-335.208 -436.184)"/><rect class="f" width="0.433" height="0.071" transform="translate(57.719 84.882) rotate(-45)"/><path class="f" d="M391.139,528.138a.83.83,0,0,1,0-1.173l-.306.306a.83.83,0,0,0,1.173,1.173l.306-.306A.83.83,0,0,1,391.139,528.138Z" transform="translate(-335.938 -441.913)"/><path class="f" d="M413.566,553.011a.83.83,0,0,1,0-1.173l-.306.306a.83.83,0,0,0,1.173,1.173l.306-.306A.83.83,0,0,1,413.566,553.011Z" transform="translate(-353.187 -461.044)"/><path class="f" d="M444.047,561.632a.283.283,0,0,0-.4-.4l-.306.306a.283.283,0,1,1,.4.4Z" transform="translate(-376.511 -468.206)"/><path class="f" d="M414.792,544.975a.7.7,0,0,1-1.147-.742l-.306.306a.7.7,0,0,0,1.147.742Z" transform="translate(-353.4 -455.195)"/><path class="f" d="M431.948,560.546a.7.7,0,0,1,0-.988l1.14-1.261-.306.306-1.14,1.261a.7.7,0,0,0,.988.988l1.224-1.177.306-.306-1.224,1.177a.7.7,0,0,1-.988,0Z" transform="translate(-367.355 -466.012)"/><path class="f" d="M439.005,568.982a.7.7,0,0,1-.2-.509l-.154.154a.83.83,0,1,1-1.173-1.173l.128-.128a.7.7,0,0,1-.456-1.191l1.412-1.459-.306.306-1.412,1.459a.7.7,0,0,0,.456,1.191l-.128.128a.83.83,0,0,0,1.173,1.173l.154-.154a.7.7,0,0,0,1.192.509l.306-.306A.7.7,0,0,1,439.005,568.982Z" transform="translate(-371.353 -470.918)"/><path class="f" d="M421.852,556.62a.7.7,0,0,0-.777-.777.7.7,0,0,1-.194-.377l-.306.306a1.34,1.34,0,0,1,.971,1.154.7.7,0,0,0,.988,0l1.237-1.163.306-.306-1.237,1.163a.7.7,0,0,1-.988,0Z" transform="translate(-359 -463.828)"/><path class="f" d="M438.04,553a.464.464,0,1,0-.656-.656l-.306.306a.464.464,0,0,1,.656.656Z" transform="translate(-371.694 -461.332)"/><rect class="b" width="0.166" height="0.899" transform="translate(60.686 86.133) rotate(45)"/><rect class="b" width="0.166" height="0.899" transform="translate(63.251 88.016) rotate(45)"/><rect class="b" width="0.166" height="0.899" transform="translate(65.791 86.631) rotate(45)"/><rect class="b" width="0.166" height="0.899" transform="translate(57.933 87.686) rotate(45)"/><rect class="b" width="0.166" height="0.899" transform="matrix(0.179, 0.984, -0.984, 0.179, 63.937, 91.335)"/><rect class="b" width="0.166" height="0.899" transform="matrix(0.179, 0.984, -0.984, 0.179, 67.631, 89.719)"/><rect class="b" width="0.166" height="0.899" transform="translate(58.575 84.284) rotate(-6.648)"/><rect class="b" width="0.166" height="0.899" transform="translate(56.622 83.649) rotate(-6.648)"/><rect class="c" width="0.166" height="0.899" transform="translate(62.616 85.074) rotate(45)"/><rect class="c" width="0.166" height="0.899" transform="translate(67.464 88.306) rotate(45)"/><rect class="c" width="0.166" height="0.899" transform="translate(69.311 92.923) rotate(45)"/><rect class="c" width="0.166" height="0.899" transform="translate(56.121 85.121) rotate(45)"/><rect class="c" width="0.166" height="0.899" transform="translate(64.31 89.277) rotate(71.644)"/><rect class="c" width="0.166" height="0.899" transform="translate(61.416 91.089) rotate(71.644)"/><rect class="c" width="0.166" height="0.899" transform="translate(60.977 88.348) rotate(-3.441)"/><rect class="c" width="0.166" height="0.899" transform="translate(61.401 83.265) rotate(-3.441)"/><rect class="d" width="0.166" height="0.899" transform="translate(62.357 87.122) rotate(45)"/><rect class="d" width="0.166" height="0.899" transform="translate(67.898 94.971) rotate(45)"/><rect class="d" width="0.166" height="0.899" transform="translate(68.821 91.046) rotate(45)"/><rect class="d" width="0.166" height="0.899" transform="matrix(0.966, 0.259, -0.259, 0.966, 58.934, 85.866)"/><rect class="d" width="0.166" height="0.899" transform="matrix(0.966, 0.259, -0.259, 0.966, 64.253, 85.631)"/><rect class="d" width="0.166" height="0.899" transform="matrix(0.966, 0.259, -0.259, 0.966, 63.405, 83.513)"/><rect class="d" width="0.166" height="0.899" transform="translate(58.733 83.074) rotate(45)"/><path class="b" d="M916.92,359.314a1.847,1.847,0,0,0-3.694,0v82.794a1.847,1.847,0,1,0,3.694,0V359.85" transform="translate(-737.923 -311.544)"/><path class="e" d="M856.893,335.277a27.786,27.786,0,0,0-51.069,21.305h3.447c.693,0,1.26.771,1.26,1.715h.633c.695,0,1.263.771,1.263,1.715s-.568,1.715-1.263,1.715h-.633a2.328,2.328,0,0,1-.044.427h2.886c.695,0,1.263.773,1.263,1.715s-.568,1.715-1.263,1.715h-2.756a27.781,27.781,0,0,0,46.276-30.308ZM838,358.3a11.467,11.467,0,0,1-5.66,1.482,11.9,11.9,0,0,1-1.189-.06A11.508,11.508,0,1,1,838,358.3Z" transform="translate(-654.337 -283.113)"/><path class="f" d="M834.328,498.225a2.253,2.253,0,0,0,.076-.577c0-.943-.568-1.715-1.263-1.715H831.96a1.209,1.209,0,0,1-1.028.726H830.3a2.259,2.259,0,0,1-.045.429h2.886A1.359,1.359,0,0,1,834.328,498.225Z" transform="translate(-674.106 -418.045)"/><path class="f" d="M811.18,448.761a1.359,1.359,0,0,1,1.187,1.138,2.247,2.247,0,0,0,.076-.577c0-.943-.568-1.715-1.263-1.715h-.631c0-.943-.568-1.715-1.263-1.715H805.84a27.744,27.744,0,0,1-1.255-7.773c0,.205-.01.41-.01.617a27.766,27.766,0,0,0,1.265,8.311h3.446c.694,0,1.263.772,1.263,1.715Z" transform="translate(-654.354 -373.577)"/><path class="f" d="M852.533,465.684a27.706,27.706,0,0,1-20.746-9.309h-.974a27.777,27.777,0,0,0,49.5-17.314c0-.174,0-.346-.008-.519a27.777,27.777,0,0,1-27.769,27.142Z" transform="translate(-674.534 -373.903)"/><path class="f" d="M878.855,380.92a13.821,13.821,0,1,0,13.823,13.822,13.82,13.82,0,0,0-13.823-13.822Zm5.66,23.851a11.467,11.467,0,0,1-5.66,1.482,11.892,11.892,0,0,1-1.189-.06,11.508,11.508,0,1,1,6.849-1.422Z" transform="translate(-700.857 -329.583)"/><path class="a" d="M869.249,333.248v4.621a1.69,1.69,0,0,1-2.91,1.17v.527a2.007,2.007,0,1,1-4.014,0v-.439a1.689,1.689,0,0,1-2.818-1.258l-.081-4.911v-1.133a.684.684,0,0,0-1.369,0v1.133l-.08,4.106a1.691,1.691,0,0,1-3.382,0l-.207-4.106v-2.1a1.122,1.122,0,1,0-2.243,0v2.1l-.126,4.106a14.675,14.675,0,0,1-5.325,1.378v1.123a2.007,2.007,0,0,1-4.014,0V336.1a1.69,1.69,0,0,1-3.232.693v2.775a2.007,2.007,0,1,1-4.014,0v-6.608h-.011v6.608a2.007,2.007,0,1,1-4.014,0v-2.751a1.69,1.69,0,0,1-3.221-.717v-3.14h-.172V338.6a2.007,2.007,0,0,1-4.014,0v-2.5a1.691,1.691,0,0,1-3.382,0v-3.722a27.787,27.787,0,0,1,48.63.873Z" transform="translate(-666.694 -281.545)"/><path class="f" d="M869.361,407.688a2.007,2.007,0,0,1-2.007-2.007v1.047a2.007,2.007,0,1,0,4.014,0v-1.047a2.007,2.007,0,0,1-2.007,2.007Z" transform="translate(-702.64 -348.628)"/><path class="f" d="M886.8,407.688a2.007,2.007,0,0,1-2.007-2.007v1.047a2.007,2.007,0,0,0,4.014,0v-1.047a2.007,2.007,0,0,1-2.007,2.007Z" transform="translate(-716.053 -348.628)"/><path class="f" d="M856.623,391.377a1.69,1.69,0,0,1-3.221-.717v1.047a1.69,1.69,0,0,0,3.221.717Z" transform="translate(-691.91 -337.074)"/><rect class="f" width="0.011" height="1.047" transform="translate(168.728 50.446)"/><path class="f" d="M824,390.66a1.691,1.691,0,0,1-3.382,0v1.047a1.691,1.691,0,1,0,3.382,0Z" transform="translate(-666.694 -337.074)"/><rect class="f" width="0.172" height="1.047" transform="translate(161.321 50.446)"/><path class="f" d="M837.274,403.5a2.007,2.007,0,0,1-2.007-2.007v1.047a2.007,2.007,0,1,0,4.014,0V401.5a2.007,2.007,0,0,1-2.007,2.007Z" transform="translate(-677.96 -345.409)"/><path class="f" d="M918.189,407.688a2.007,2.007,0,0,1-2.007-2.007v1.047a2.007,2.007,0,1,0,4.014,0v-1.047a2.007,2.007,0,0,1-2.007,2.007Z" transform="translate(-740.196 -348.628)"/><path class="f" d="M984.165,369.871a.684.684,0,0,0-1.369,0v1.047a.684.684,0,1,1,1.369,0Z" transform="translate(-791.433 -320.558)"/><path class="f" d="M905.414,390.66a1.69,1.69,0,0,1-3.232.693V392.4a1.69,1.69,0,0,0,3.232-.693Z" transform="translate(-729.428 -337.074)"/><path class="f" d="M968.8,382.855a1.691,1.691,0,0,1-1.691-1.691l-.207-4.106V378.1l.207,4.106a1.691,1.691,0,1,0,3.382,0l.081-4.106v-1.047l-.081,4.106a1.691,1.691,0,0,1-1.691,1.691Z" transform="translate(-779.208 -326.612)"/><path class="f" d="M996.857,383.66a1.685,1.685,0,0,1-1.219-.521v.527a2.007,2.007,0,0,1-4.015,0v-.439a1.689,1.689,0,0,1-2.818-1.258l-.08-4.911V378.1l.08,4.911a1.689,1.689,0,0,0,2.818,1.258v.439a2.007,2.007,0,0,0,4.015,0v-.527a1.69,1.69,0,0,0,2.91-1.17v-1.047a1.69,1.69,0,0,1-1.691,1.691Z" transform="translate(-795.993 -326.612)"/><path class="f" d="M937.206,382.855a3.241,3.241,0,0,0-3.634-.312v1.047a5.02,5.02,0,0,1,4.188.22,1.689,1.689,0,0,0,1.138-1.6l.126-4.106v-1.047l-.126,4.106a1.691,1.691,0,0,1-1.691,1.691Z" transform="translate(-753.571 -326.612)"/><path class="f" d="M959.429,364.229a1.122,1.122,0,1,0-2.243,0v1.047a1.122,1.122,0,1,1,2.243,0Z" transform="translate(-771.735 -315.882)"/><rect class="b" width="0.403" height="2.174" transform="translate(168.538 48.553)"/><rect class="b" width="0.403" height="2.174" transform="translate(176.147 47.386)"/><rect class="b" width="0.403" height="2.174" transform="translate(197.402 48.674)"/><rect class="b" width="0.403" height="2.174" transform="translate(166.485 55.92)"/><rect class="b" width="0.403" height="2.174" transform="matrix(0.822, 0.569, -0.569, 0.822, 182.999, 51.893)"/><rect class="b" width="0.403" height="2.174" transform="translate(161.764 49.004) rotate(-51.648)"/><rect class="b" width="0.403" height="2.174" transform="translate(185.435 40.872) rotate(-51.648)"/><rect class="b" width="0.403" height="2.174" transform="translate(157.335 51.258) rotate(-51.648)"/><rect class="c" width="0.403" height="2.174" transform="translate(170.028 43.441)"/><rect class="c" width="0.403" height="2.174" transform="translate(158.997 54.632)"/><rect class="c" width="0.403" height="2.174" transform="translate(177.838 40.301)"/><rect class="c" width="0.403" height="2.174" transform="translate(197.161 53.908)"/><rect class="c" width="0.403" height="2.174" transform="matrix(0.894, 0.448, -0.448, 0.894, 180.117, 47.734)"/><rect class="c" width="0.403" height="2.174" transform="matrix(0.894, 0.448, -0.448, 0.894, 178.265, 55.786)"/><rect class="c" width="0.403" height="2.174" transform="matrix(0.894, 0.448, -0.448, 0.894, 200.487, 52.163)"/><rect class="c" width="0.403" height="2.174" transform="matrix(0.663, -0.748, 0.748, 0.663, 172.824, 51.847)"/><rect class="c" width="0.403" height="2.174" transform="matrix(0.663, -0.748, 0.748, 0.663, 164.853, 42.427)"/><rect class="c" width="0.403" height="2.174" transform="matrix(0.663, -0.748, 0.748, 0.663, 191.342, 46.051)"/><rect class="c" width="0.403" height="2.174" transform="matrix(0.663, -0.748, 0.748, 0.663, 181.6, 38.965)"/><rect class="d" width="0.403" height="2.174" transform="translate(173.087 47.386)"/><rect class="d" width="0.403" height="2.174" transform="matrix(0.92, 0.391, -0.391, 0.92, 195.831, 48.601)"/><rect class="d" width="0.403" height="2.174" transform="translate(165.084 51.095) rotate(-30)"/><rect class="d" width="0.403" height="2.174" transform="translate(188.111 49.565) rotate(-30)"/><rect class="d" width="0.403" height="2.174" transform="translate(173.779 41.594) rotate(-30)"/><rect class="d" width="0.403" height="2.174" transform="translate(190.848 41.192) rotate(-30)"/><rect class="d" width="0.403" height="2.174" transform="translate(168.707 39.42) rotate(-30)"/><rect class="d" width="0.403" height="2.174" transform="translate(183.151 43.038)"/><rect class="d" width="0.403" height="2.174" transform="translate(159.964 46.661)"/><circle class="g" cx="9.699" cy="9.699" r="9.699" transform="translate(72.082 106.691)"/><rect class="g" width="2.946" height="5.279" transform="translate(88.426 128.286) rotate(169.739)"/><rect class="g" width="2.946" height="5.279" transform="translate(82.627 129.335) rotate(169.739)"/><ellipse class="g" cx="2.455" cy="0.921" rx="2.455" ry="0.921" transform="matrix(0.763, -0.646, 0.646, 0.763, 78.203, 131.136)"/><ellipse class="g" cx="2.455" cy="0.921" rx="2.455" ry="0.921" transform="matrix(0.763, -0.646, 0.646, 0.763, 83.881, 130.109)"/><circle class="c" cx="3.315" cy="3.315" r="3.315" transform="translate(77.787 110.702)"/><circle class="b" cx="1.105" cy="1.105" r="1.105" transform="translate(78.634 111.724)"/><path class="h" d="M493.409,594.355c.146-3.591-2.949-6.632-6.912-6.793s-7.294,2.619-7.44,6.21,2.609,4.406,6.572,4.567S493.263,597.946,493.409,594.355Z" transform="translate(-403.978 -488.517)"/><ellipse class="g" cx="1.522" cy="4.849" rx="1.522" ry="4.849" transform="matrix(0.223, -0.975, 0.975, 0.223, 67.758, 115.023)"/><ellipse class="g" cx="1.522" cy="4.849" rx="1.522" ry="4.849" transform="matrix(0.223, -0.975, 0.975, 0.223, 86.796, 118.189)"/><path class="c" d="M505.047,675.432a2.21,2.21,0,0,1-4.349.787c-.217-1.2.711-1.626,1.912-1.843S504.829,674.231,505.047,675.432Z" transform="translate(-420.602 -555.22)"/><ellipse class="g" cx="4.971" cy="1.561" rx="4.971" ry="1.561" transform="matrix(0.357, -0.934, 0.934, 0.357, 132.216, 86.272)"/><circle class="g" cx="9.942" cy="9.942" r="9.942" transform="translate(119.715 108.319)"/><rect class="g" width="3.02" height="5.412" transform="translate(125.127 126.064)"/><rect class="g" width="3.02" height="5.412" transform="translate(131.167 126.064)"/><ellipse class="g" cx="2.517" cy="0.944" rx="2.517" ry="0.944" transform="translate(125.127 130.594)"/><ellipse class="g" cx="2.517" cy="0.944" rx="2.517" ry="0.944" transform="translate(131.167 130.468)"/><circle class="c" cx="3.398" cy="3.398" r="3.398" transform="translate(126.511 112.346)"/><circle class="b" cx="1.133" cy="1.133" r="1.133" transform="translate(128.776 114.611)"/><path class="h" d="M673.228,603.08c-.8-3.6,1.763-7.228,5.732-8.114s7.836,1.31,8.639,4.905-1.827,4.921-5.8,5.807S674.031,606.675,673.228,603.08Z" transform="translate(-553.215 -494.065)"/><circle class="g" cx="9.942" cy="9.942" r="9.942" transform="translate(116.317 79.751)"/><rect class="g" width="3.02" height="5.412" transform="translate(121.729 97.496)"/><rect class="g" width="3.02" height="5.412" transform="translate(127.769 97.496)"/><ellipse class="g" cx="2.517" cy="0.944" rx="2.517" ry="0.944" transform="translate(121.729 102.026)"/><ellipse class="g" cx="2.517" cy="0.944" rx="2.517" ry="0.944" transform="translate(127.769 101.9)"/><circle class="c" cx="3.398" cy="3.398" r="3.398" transform="translate(123.113 83.778)"/><circle class="b" cx="1.133" cy="1.133" r="1.133" transform="translate(125.378 86.043)"/><path class="h" d="M658.509,479.33c-.8-3.6,1.763-7.228,5.732-8.114s7.836,1.31,8.639,4.905-1.827,4.921-5.8,5.807S659.312,482.925,658.509,479.33Z" transform="translate(-541.894 -398.883)"/><ellipse class="g" cx="1.561" cy="4.971" rx="1.561" ry="4.971" transform="translate(109.901 84.359) rotate(-64.626)"/><path class="c" d="M679.621,558.587c0,.973,2.505,2.895,5.286,2.895s5.387-2.74,5.387-3.713-2.607.189-5.387.189S679.621,557.614,679.621,558.587Z" transform="translate(-558.245 -465.308)"/><circle class="e" cx="1.385" cy="1.385" r="1.385" transform="translate(153.908 100.579)"/><circle class="e" cx="1.385" cy="1.385" r="1.385" transform="translate(157.68 89.398)"/><circle class="e" cx="1.385" cy="1.385" r="1.385" transform="translate(154.231 83.682)"/><rect class="g" width="2.796" height="5.01" transform="translate(144.404 126.536) rotate(-105.453)"/><ellipse class="g" cx="0.874" cy="2.33" rx="0.874" ry="2.33" transform="translate(141.91 122.753) rotate(-15.453)"/><ellipse class="g" cx="4.602" cy="1.445" rx="4.602" ry="1.445" transform="translate(155.42 118.743) rotate(-82.281)"/><circle class="g" cx="9.204" cy="9.204" r="9.204" transform="translate(147.365 113.789)"/><rect class="g" width="2.796" height="5.01" transform="translate(144.404 124.905) rotate(-105.453)"/><ellipse class="g" cx="0.874" cy="2.33" rx="0.874" ry="2.33" transform="translate(141.909 121.122) rotate(-15.453)"/><circle class="c" cx="3.146" cy="3.146" r="3.146" transform="translate(155.84 114.575)"/><circle class="b" cx="1.049" cy="1.049" r="1.049" transform="translate(158.943 115.282)"/><path class="h" d="M863.233,673.335c3.406-.17,6.015-3.356,5.827-7.116s-3.1-6.669-6.508-6.5-3.94,2.844-3.752,6.6S859.827,673.506,863.233,673.335Z" transform="translate(-696.035 -544.017)"/><path class="c" d="M808.226,660.5a2.1,2.1,0,0,1-.338-4.181c1.154-.093,1.469.823,1.563,1.978S809.381,660.407,808.226,660.5Z" transform="translate(-655.419 -541.401)"/><ellipse class="g" cx="4.602" cy="1.445" rx="4.602" ry="1.445" transform="translate(151.965 120.93) rotate(-82.281)"/><circle class="e" cx="1.385" cy="1.385" r="1.385" transform="translate(153.215 109.582)"/><path class="e" d="M750.939,486.273a1.721,1.721,0,0,0-1.717-1.943h-.549a1.715,1.715,0,0,0,.2-.808,1.736,1.736,0,0,0-1.731-1.731h-5.771a1.731,1.731,0,0,0,0,3.463h.549a1.715,1.715,0,0,0-.2.808,5.332,5.332,0,0,1,1.586,3,1.72,1.72,0,0,0,1.3.581h5.771a1.73,1.73,0,0,0,.563-3.366Z" transform="translate(-604.41 -407.167)"/><rect class="b" width="0.177" height="0.956" transform="translate(68.96 91.49) rotate(45)"/></g></svg>